<?xml version="1.0" encoding="UTF-8"?><svg id="Layer_2" xmlns="http://www.w3.org/2000/svg" xmlns:xlink="http://www.w3.org/1999/xlink" viewBox="0 0 292.53 184.48"><defs><style>.cls-1{fill:url(#radial-gradient-2);}.cls-1,.cls-2{fill-rule:evenodd;}.cls-3{fill:none;stroke:url(#linear-gradient);stroke-width:5px;}.cls-2{fill:url(#radial-gradient);}</style><radialGradient id="radial-gradient" cx="4235.02" cy="-2650.04" fx="4235.02" fy="-2650.04" r="146.26" gradientTransform="translate(3385.54 -2900.69) rotate(90) scale(.7 -1.22)" gradientUnits="userSpaceOnUse"><stop offset="0" stop-color="#f3e66c"/><stop offset=".66" stop-color="#f3e66c"/><stop offset=".84" stop-color="#d8b336"/><stop offset="1" stop-color="#d2a709"/></radialGradient><radialGradient id="radial-gradient-2" cx="662.32" cy="-4885.47" fx="662.32" fy="-4885.47" r="124.34" gradientTransform="translate(-942.33 -3205.98) scale(1.64 -.66)" gradientUnits="userSpaceOnUse"><stop offset="0" stop-color="#efe263"/><stop offset="1" stop-color="#d2a709"/></radialGradient><linearGradient id="linear-gradient" x1="107.86" y1="-3891.61" x2="107.86" y2="-3999.32" gradientTransform="translate(54.58 -3317.52) scale(.85 -.86)" gradientUnits="userSpaceOnUse"><stop offset="0" stop-color="#f7f084"/><stop offset="1" stop-color="#ecd44f"/></linearGradient></defs><g id="Layer_1-2"><g id="layer1"><path id="path2390" class="cls-2" d="M107.88,5.78C45.78,14.78,0,44.97,0,80.89v25.67c0,43.02,65.53,77.92,146.26,77.92s146.26-34.91,146.26-77.92v-25.67c0-35.95-45.84-66.13-108.01-75.11,3.43.6,6.81,1.22,10.1,1.96,3.72.85,7.35,1.78,10.87,2.81,3.53,1.03,6.97,2.17,10.27,3.38,3.31,1.19,6.48,2.49,9.55,3.85s6.06,2.77,8.87,4.29c2.81,1.51,5.48,3.08,8.02,4.74,2.53,1.64,4.9,3.35,7.14,5.13,2.23,1.77,4.34,3.64,6.25,5.53,1.93,1.89,3.64,3.81,5.22,5.81,1.57,2,2.95,4.04,4.17,6.13,1.21,2.09,2.26,4.25,3.08,6.42.83,2.17,1.46,4.38,1.89,6.62s.64,4.52.64,6.81-.22,4.58-.64,6.81c-.42,2.25-1.05,4.45-1.89,6.62-.82,2.17-1.87,4.32-3.08,6.42-1.22,2.09-2.61,4.09-4.17,6.1-.73.91-1.62,1.78-2.41,2.68-12.67,22.55-58.06,39.27-112.13,39.27s-99.47-16.72-112.14-39.27c-.8-.9-1.68-1.77-2.4-2.68-1.58-2-3-4-4.21-6.1-1.22-2.09-2.22-4.25-3.05-6.42-.82-2.17-1.46-4.38-1.89-6.62-.42-2.23-.64-4.52-.64-6.81s.22-4.57.64-6.81,1.07-4.45,1.89-6.62c.83-2.17,1.84-4.32,3.05-6.42,1.21-2.09,2.63-4.13,4.21-6.13,1.57-2,3.3-3.93,5.21-5.81,1.91-1.89,4.02-3.76,6.25-5.53,2.25-1.78,4.61-3.49,7.15-5.13,2.53-1.66,5.21-3.22,8.02-4.74,2.81-1.51,5.75-2.93,8.82-4.29s6.28-2.66,9.59-3.85c3.31-1.21,6.75-2.35,10.27-3.38,3.53-1.03,7.15-1.96,10.87-2.81,3.26-.73,6.6-1.37,9.98-1.96h0Z"/><path id="path2392" class="cls-1" d="M107.88,5.78c-3.39.59-6.72,1.23-9.98,1.96-3.72.85-7.34,1.78-10.87,2.81-3.52,1.03-6.96,2.17-10.27,3.38-3.31,1.19-6.52,2.49-9.59,3.85s-6.01,2.77-8.82,4.29c-2.81,1.51-5.49,3.08-8.02,4.74-2.54,1.64-4.9,3.35-7.15,5.13-2.23,1.77-4.34,3.64-6.25,5.53-1.91,1.89-3.64,3.81-5.21,5.81-1.58,2-3,4.04-4.21,6.13-1.22,2.09-2.22,4.25-3.05,6.42-.82,2.17-1.46,4.38-1.89,6.62s-.64,4.52-.64,6.81.22,4.58.64,6.81c.42,2.25,1.07,4.45,1.89,6.62.83,2.17,1.84,4.32,3.05,6.42,1.21,2.09,2.63,4.09,4.21,6.1.72.91,1.6,1.78,2.4,2.68-.77-1.37-1.48-2.75-2-4.17,9.09-24.64,56.75-43.43,114.14-43.43s105.04,18.79,114.13,43.43c-.51,1.42-1.22,2.8-2,4.17.8-.9,1.68-1.77,2.41-2.68,1.57-2,2.95-4,4.17-6.1,1.21-2.09,2.26-4.25,3.08-6.42.83-2.17,1.46-4.38,1.89-6.62.42-2.23.64-4.52.64-6.81s-.22-4.57-.64-6.81c-.42-2.25-1.05-4.45-1.89-6.62-.82-2.17-1.87-4.32-3.08-6.42-1.22-2.09-2.61-4.13-4.17-6.13-1.58-2-3.3-3.93-5.22-5.81-1.91-1.89-4.02-3.76-6.25-5.53-2.23-1.78-4.61-3.49-7.14-5.13-2.54-1.66-5.21-3.22-8.02-4.74-2.81-1.51-5.8-2.93-8.87-4.29s-6.24-2.66-9.55-3.85c-3.3-1.21-6.74-2.35-10.27-3.38-3.52-1.03-7.15-1.96-10.87-2.81-3.29-.74-6.67-1.36-10.1-1.96-12.22-1.76-25-2.81-38.26-2.81s-26.13,1.04-38.38,2.81h0Z"/><path id="path2394" class="cls-3" d="M270.58,69.25c0,36.87-55.66,66.75-124.33,66.75S21.93,106.12,21.93,69.25,77.6,2.5,146.26,2.5s124.33,29.89,124.33,66.75Z"/></g></g></svg>