<?xml version="1.0" encoding="UTF-8"?>
<svg id="Layer_1" xmlns="http://www.w3.org/2000/svg" version="1.1" viewBox="0 0 45 45">
  <!-- Generator: Adobe Illustrator 29.2.1, SVG Export Plug-In . SVG Version: 2.1.0 Build 116)  -->
  <defs>
    <style>
      .st0 {
        fill-rule: evenodd;
      }
    </style>
  </defs>
  <path class="st0" d="M22,11h-2.4c-1.2,0-2.2.8-2.7,1.9l-.5,1.1c-1,0-1.8,0-2.5.1-1.9.1-3.3,1.5-3.5,3.4-.1,1.5-.3,3.6-.3,5.9s.1,4.4.3,5.9c.2,1.9,1.7,3.3,3.5,3.4,1.8,0,4.5.2,8.2.2s6.5,0,8.2-.2c1.9,0,3.3-1.5,3.5-3.4,0-1.5.3-3.6.3-5.9s0-4.4-.3-5.9c-.2-1.9-1.7-3.3-3.5-3.4-.7,0-1.5,0-2.5-.1l-.5-1.1c-.5-1-1.5-1.8-2.7-1.9h-2.6ZM19.7,13.1h4.6c.4,0,.8.3,1,.7l.8,1.7c.2.3.5.6.9.6,1.3,0,2.3,0,3.1.1.9,0,1.5.7,1.6,1.5.1,1.4.3,3.5.3,5.7s-.1,4.3-.3,5.7c0,.8-.7,1.5-1.6,1.5-1.7.1-4.4.2-8.1.2s-6.4-.1-8.1-.2c-.9,0-1.5-.7-1.6-1.5-.1-1.4-.3-3.5-.3-5.7s.1-4.3.3-5.7c0-.8.7-1.5,1.6-1.5s1.8-.1,3.1-.1.7-.2.9-.6l.8-1.7c.2-.4.6-.7,1-.7ZM16.9,23.3c0-2.8,2.3-5.1,5.1-5.1s5.1,2.3,5.1,5.1-2.3,5.1-5.1,5.1-5.1-2.3-5.1-5.1ZM42,22.2c0-10.9-8.9-19.8-19.8-19.8S2.4,11.3,2.4,22.2s8.9,19.8,19.8,19.8,19.8-8.9,19.8-19.8ZM44.4,22.2c0,12.3-9.9,22.2-22.2,22.2S0,34.5,0,22.2,9.9,0,22.2,0s22.2,9.9,22.2,22.2Z"/>
</svg>