<svg width="32" height="32" viewBox="0 0 32 32" fill="none" xmlns="http://www.w3.org/2000/svg">
<path d="M22.3808 8.38076C22.8884 7.87308 23.711 7.87308 24.2187 8.38076C24.7263 8.88844 24.7263 9.71097 24.2187 10.2187L18.1376 16.2997L24.2187 22.3808L24.3085 22.4794C24.7247 22.99 24.6945 23.7428 24.2187 24.2187C23.7428 24.6945 22.99 24.7247 22.4794 24.3085L22.3808 24.2187L16.2997 18.1376L10.2187 24.2187C9.71097 24.7263 8.88844 24.7263 8.38076 24.2187C7.87308 23.711 7.87308 22.8884 8.38076 22.3808L14.4618 16.2997L8.38076 10.2187C7.87308 9.71097 7.87308 8.88844 8.38076 8.38076C8.88844 7.87308 9.71097 7.87308 10.2187 8.38076L16.2997 14.4618L22.3808 8.38076Z" fill="black"/>
<path d="M32 15.9881C32 28.2957 18.6667 35.988 8 29.8342C-2.66667 23.6803 -2.66667 8.2958 8 2.142C10.4323 0.738748 13.1914 0 16 0C24.8327 0.00932978 31.9907 7.16197 32 15.9881ZM29.5385 15.9881C29.5385 5.57393 18.2564 -0.934915 9.23077 4.27216C0.205132 9.47923 0.205132 22.4969 9.23077 27.704C11.2889 28.8913 13.6235 29.5164 16 29.5164C23.4736 29.508 29.53 23.4561 29.5385 15.9881Z" fill="black"/>
</svg>
