<svg width="32" height="32" viewBox="0 0 32 32" fill="none" xmlns="http://www.w3.org/2000/svg">
<path d="M17.8461 23.9821C17.8461 25.4022 16.3077 26.2898 15.0769 25.5797C13.8461 24.8697 13.8461 23.0945 15.0769 22.3845C15.3576 22.2226 15.6759 22.1373 16 22.1373C17.0196 22.1373 17.8461 22.9633 17.8461 23.9821ZM16 7.37911C12.6062 7.37911 9.84615 9.86188 9.84615 12.9134V13.5284C9.84615 14.4751 10.8718 15.0668 11.6923 14.5935C12.0731 14.3738 12.3077 13.9678 12.3077 13.5284V12.9134C12.3077 11.2224 13.9646 9.83881 16 9.83881C18.0354 9.83881 19.6923 11.2224 19.6923 12.9134C19.6923 14.6045 18.0354 15.9881 16 15.9881C15.3202 15.988 14.7692 16.5387 14.7692 17.2179V18.4478C14.7692 19.3945 15.7949 19.9862 16.6154 19.5129C16.9962 19.2932 17.2308 18.8872 17.2308 18.4478V18.3371C20.0369 17.8221 22.1538 15.5853 22.1538 12.9134C22.1538 9.86188 19.3938 7.37911 16 7.37911ZM32 15.9881C32 28.2957 18.6667 35.988 8 29.8342C-2.66667 23.6803 -2.66667 8.2958 8 2.142C10.4323 0.738748 13.1914 0 16 0C24.8327 0.00932978 31.9907 7.16197 32 15.9881ZM29.5385 15.9881C29.5385 5.57393 18.2564 -0.934915 9.23077 4.27216C0.205131 9.47923 0.205131 22.4969 9.23077 27.704C11.2889 28.8913 13.6235 29.5164 16 29.5164C23.4736 29.508 29.53 23.4561 29.5385 15.9881Z" fill="black"/>
</svg>
