<svg width="58" height="58" viewBox="0 0 58 58" fill="none" xmlns="http://www.w3.org/2000/svg">
<path d="M33.4505 27.6737C36.0605 27.6737 37.9185 27.2117 39.0205 25.7617C40.1225 24.3117 40.3661 22.5388 39.7474 20.3851C39.2641 18.6992 38.4192 17.4232 37.2128 16.5281C36.0064 15.6329 34.4133 15.3739 32.5148 15.3739C32.1494 15.3739 31.4283 15.3835 30.9875 15.3835V27.6757H33.4486L33.4505 27.6737ZM20.7853 41.4681C19.5808 40.5729 18.7359 39.295 18.2526 37.6091C17.6339 35.4535 17.8775 33.6883 18.9795 32.2364C20.0815 30.7883 21.9395 30.3243 24.5495 30.3243H27.0106V42.6165C26.5679 42.6165 25.8467 42.6242 25.4833 42.6242C23.5847 42.6242 21.9897 42.3651 20.7853 41.4681ZM58 29C58 12.9843 45.0157 0 29 0C12.9843 0 0 12.9843 0 29C0 45.0157 12.9843 58 29 58C45.0157 58 58 45.0157 58 29ZM51.0632 43.6102L51.0535 44.4667H43.6759L34.4307 29.4427H30.9875V38.2239C30.9875 39.469 31.0706 40.4318 31.2678 41.1162C31.4669 41.8141 31.9425 42.4057 32.6521 42.891C33.3616 43.3763 34.2567 43.6257 35.3123 43.6102L35.293 44.4667H23.7955C20.4257 44.4667 17.8137 43.8171 15.9597 42.5411C14.1075 41.2651 13.0017 39.1055 13.0017 36.7855C13.0017 34.4655 13.3187 33.6439 14.442 32.0431C15.7025 30.2451 17.2859 29.3499 19.8167 28.9091L14.2197 19.8689C12.8547 17.6513 11.7121 16.2091 10.7919 15.5421C9.8716 14.8751 8.58593 14.4807 6.93487 14.3898L6.9426 13.5333H14.3221L23.5673 28.5573H27.0106V19.7761C27.0106 18.531 26.9275 17.5663 26.7303 16.8838C26.5292 16.1859 26.0555 15.5943 25.346 15.109C24.6365 14.6218 23.7433 14.3743 22.6857 14.3898L22.7051 13.5333H34.2026C37.5743 13.5333 40.1843 14.1829 42.0384 15.4609C43.8925 16.7349 44.9983 18.8964 44.9983 21.2145C44.9983 23.5325 44.6813 24.3561 43.558 25.9569C42.2975 27.7549 40.7121 28.6501 38.1833 29.0909L43.7803 38.1311C45.1453 40.3487 46.2879 41.8025 47.2081 42.4715C48.1284 43.1385 49.4141 43.5213 51.0632 43.6121V43.6102Z" fill="#202020"/>
</svg>
