<svg width="30" height="30" viewBox="0 0 30 30" fill="none" xmlns="http://www.w3.org/2000/svg">
<path d="M0.000244141 21.9997V7.99975C0.000292832 6.992 0.400932 6.02582 1.11353 5.31323C1.82612 4.60064 2.7923 4.2 3.80005 4.19994H10.8C11.3523 4.19994 11.8 4.64766 11.8 5.19994C11.8 5.75223 11.3523 6.19994 10.8 6.19994H3.80005C3.32273 6.2 2.86511 6.38977 2.52759 6.72729C2.19007 7.06481 2.00029 7.52243 2.00024 7.99975V21.9997C2.00024 22.4771 2.19012 22.9347 2.52759 23.2722C2.86511 23.6097 3.32273 23.7995 3.80005 23.7996H13.5999C14.152 23.7996 14.5997 24.2474 14.5999 24.7996C14.5999 25.3518 14.1521 25.7996 13.5999 25.7996H3.80005C2.79245 25.7995 1.82609 25.3996 1.11353 24.6872C0.400886 23.9746 0.000244141 23.0076 0.000244141 21.9997Z" fill="black"/>
<path d="M28 21.9997V7.99975C28 7.52257 27.811 7.06478 27.4736 6.72729C27.1361 6.38972 26.6776 6.19994 26.2002 6.19994H16.4004C15.8481 6.19994 15.4004 5.75223 15.4004 5.19994C15.4004 4.64766 15.8481 4.19994 16.4004 4.19994H26.2002C27.208 4.19994 28.1751 4.60059 28.8877 5.31323C29.6001 6.02579 30 6.99213 30 7.99975V21.9997C30 23.0076 29.6003 23.9746 28.8877 24.6872C28.1751 25.3999 27.208 25.7996 26.2002 25.7996H19.2002C18.648 25.7994 18.2002 25.3518 18.2002 24.7996C18.2004 24.2475 18.6481 23.7997 19.2002 23.7996H26.2002C26.6776 23.7996 27.1361 23.6098 27.4736 23.2722C27.8109 22.9347 28 22.4769 28 21.9997Z" fill="black"/>
<path d="M18.2007 15.0001C18.2007 14.1515 17.8632 13.3375 17.2632 12.7374C16.6632 12.1373 15.8492 11.8 15.0006 11.7999C14.1519 11.7999 13.338 12.1373 12.7379 12.7374C12.1377 13.3375 11.8004 14.1514 11.8004 15.0001C11.8004 15.8487 12.1378 16.6627 12.7379 17.2628C13.338 17.8628 14.152 18.2003 15.0006 18.2003C15.8492 18.2003 16.6632 17.8629 17.2632 17.2628C17.8633 16.6627 18.2007 15.8487 18.2007 15.0001ZM20.2007 15.0001C20.2007 16.3792 19.6524 17.7017 18.6773 18.6769C17.7022 19.652 16.3796 20.2003 15.0006 20.2003C13.6215 20.2003 12.299 19.6519 11.3238 18.6769C10.3487 17.7017 9.80041 16.3792 9.80035 15.0001C9.80035 13.621 10.3486 12.2985 11.3238 11.3233C12.299 10.3482 13.6214 9.79991 15.0006 9.79991C16.3796 9.79996 17.7022 10.3482 18.6773 11.3233C19.6524 12.2985 20.2007 13.6211 20.2007 15.0001Z" fill="black"/>
<path d="M22.6934 19.8928C23.084 19.5024 23.717 19.5023 24.1075 19.8928C24.4979 20.2833 24.4979 20.9164 24.1075 21.3069L20.6143 24.7991L24.1075 28.2922C24.498 28.6828 24.498 29.3168 24.1075 29.7073C23.7171 30.0976 23.0839 30.0975 22.6934 29.7073L18.4932 25.5071C18.3057 25.3196 18.2003 25.0647 18.2002 24.7996C18.2002 24.5344 18.3058 24.2806 18.4932 24.093L22.6934 19.8928Z" fill="black"/>
<path d="M5.89326 0.292931C6.28378 -0.097593 6.9168 -0.0975923 7.30732 0.292931L11.5075 4.49313C11.6949 4.68064 11.8 4.93482 11.8 5.19994C11.8 5.46508 11.695 5.7197 11.5075 5.90719L7.30732 10.1074C6.91685 10.4976 6.28373 10.4976 5.89326 10.1074C5.50274 9.71686 5.50274 9.08287 5.89326 8.69234L9.38545 5.19918L5.89326 1.70699C5.50274 1.31647 5.50274 0.683455 5.89326 0.292931Z" fill="black"/>
</svg>
