<svg width="40" height="40" viewBox="0 0 40 40" fill="none" xmlns="http://www.w3.org/2000/svg">
<path d="M12 6C12 9.31371 9.31371 12 6 12C2.68629 12 0 9.31371 0 6C0 2.68629 2.68629 0 6 0C9.31371 0 12 2.68629 12 6Z" fill="#F7F7FF"/>
<path d="M40 6C40 9.31371 37.3137 12 34 12C30.6863 12 28 9.31371 28 6C28 2.68629 30.6863 0 34 0C37.3137 0 40 2.68629 40 6Z" fill="#F7F7FF"/>
<path d="M12 34C12 37.3137 9.31371 40 6 40C2.68629 40 0 37.3137 0 34C0 30.6863 2.68629 28 6 28C9.31371 28 12 30.6863 12 34Z" fill="#F7F7FF"/>
<path d="M40 34C40 37.3137 37.3137 40 34 40C30.6863 40 28 37.3137 28 34C28 30.6863 30.6863 28 34 28C37.3137 28 40 30.6863 40 34Z" fill="#F7F7FF"/>
</svg>
